
		<svg xmlns="http://www.w3.org/2000/svg" xmlns:xlink="http://www.w3.org/1999/xlink" version="1.1" width="3215.8273381294966" height="1241.0071942446043">
			
			<g transform="scale(10.79136690647482) translate(10, 10)">
				<defs id="SvgjsDefs4053"/><g id="SvgjsG4054" featureKey="root" fill="#000"/><g id="SvgjsG4055" featureKey="symbol1" fill="#000" transform="matrix(0.9386802315711975,0,0,0.9386802315711975,-3.6177758255132484,1.0178853104496195)"><path xmlns="http://www.w3.org/2000/svg" class="st0" d="M6,57.7c0.9,4.9,5.5,14.8,3.5,9.1c-3.4-9.7-4-13-4.2-23.2C5.1,48.7,5.1,52.5,6,57.7z" style="fill: #ff6f00;"/><path xmlns="http://www.w3.org/2000/svg" class="st0" d="M94,39.5c0.1,0.2,0.1,0.4,0.2,0.6C94.1,39.9,94,39.7,94,39.5z" style="fill: #ff6f00;"/><path xmlns="http://www.w3.org/2000/svg" class="st0" d="M94.2,40.2c0.1,0.4,0.3,0.9,0.4,1.3C94.4,41,94.3,40.6,94.2,40.2z" style="fill: #ff6f00;"/><path xmlns="http://www.w3.org/2000/svg" class="st0" d="M7.8,47.8c0,0.1,0,0.2,0,0.3C7.9,48,7.9,47.9,7.8,47.8L7.8,47.8z" style="fill: #ff6f00;"/><path xmlns="http://www.w3.org/2000/svg" class="st0" d="M5.2,43.4L5.2,43.4c0,0.1,0,0.1,0,0.2C5.2,43.5,5.2,43.4,5.2,43.4z" style="fill: #ff6f00;"/><path xmlns="http://www.w3.org/2000/svg" class="st0" d="M11.7,61.1c-1.1-4-1.8-7.9-2-11.6C9.8,53.5,10.5,57.4,11.7,61.1z" style="fill: #ff6f00;"/><path xmlns="http://www.w3.org/2000/svg" class="st0" d="M50.2,94.2c1.2,0.1,2.5,0.1,3.8,0c-0.6,0-1.2,0-1.8,0c0.3,0,0.5,0,0.9,0c0.6,0,1.2,0,1.8,0  c0.4,0,0.9-0.1,1.3-0.1c-0.4,0-0.7,0-1.1,0c-1.5,0-2.9,0.1-4.2,0.1C49.9,94.1,49,94,48,93.9c0.6,0.1,1.2,0.2,1.8,0.3  c-0.1,0-0.3,0-0.4,0c0.2,0,0.4,0,0.6,0C50.1,94.2,50.1,94.2,50.2,94.2C50.1,94.2,50.1,94.2,50.2,94.2z" style="fill: #ff6f00;"/><path xmlns="http://www.w3.org/2000/svg" class="st0" d="M91.8,68.5c-1.3,2-2.1,3.5-3,5c0.5-0.7,0.9-1.4,1.3-2C90.8,70.6,91.3,69.6,91.8,68.5z" style="fill: #ff6f00;"/><path xmlns="http://www.w3.org/2000/svg" class="st0" d="M63.7,92c-5,1.1-10.2,1.4-15.4,0.9C53.9,93.7,59,93.4,63.7,92z" style="fill: #ff6f00;"/><path xmlns="http://www.w3.org/2000/svg" class="st0" d="M91.2,75.1c4.1-6.6,6.3-14.6,5.8-24c-0.5-7.8-0.6-0.2-0.7,4.3c0-0.2,0-0.5,0-0.7  c0.1-2.8-0.1-5.7-0.6-8.5c0.1,0.9,0.3,1.8,0.4,2.7c0.2,1.5,0.2,3,0.2,4.5C96.1,47.6,95,42,93,37.1c0.4,0.8,0.7,1.6,1,2.4  c-1.2-3.5-2.8-6.7-4.7-9.5c-4.9-7.4-12.4-12.8-22.5-15.3c6.7,2.6,12.6,5.9,17.4,10.3c7.5,8.9,11.1,17.1,11.2,26.5  c-0.1-1.1-0.2-2.2-0.4-3.6c-2-14.1,1.1,6.3-1.4,16c-0.4,1.5-1,3-1.7,4.5c0.3-0.5,0.6-0.9,1-1.4h0c0,0,0,0,0,0l1.2-2.3  c1.1-2.1,1.7-4.6,2.1-7.3c-0.8,7.8-3.7,14.5-8.2,20.1c1.8-2.6,3.4-5.5,4.4-8.6c0,0,0,0.1,0,0.1c0.5-1-0.5,0.3-2,2.6  c-0.8,1.4-1.6,2.7-2.5,3.9c-0.1,0.1-0.2,0.3-0.4,0.4c0.6-0.8,1.1-1.6,1.5-2.4c-0.7,1-1.4,2.1-2.2,3.1C79.9,84,72.4,89.6,63.7,92  c2.8-0.6,5.5-1.5,8-2.6c-10.2,5.1-20.9,5.4-30.5,2.2c2.3,0.6,4.7,1,7.1,1.3c-1.3-0.2-2.6-0.4-4-0.8c-4.2-1-8-2.5-11.4-4.3  c-0.7-0.4-1.5-0.9-2.2-1.4c-5.1-3.6-9.8-8.4-13.8-14c-1.1-1.6-2-3.4-2.9-5.1C9.5,56.1,9.6,42.5,13.9,29c0.4-0.9,0.9-1.9,1.4-2.8  c0.5-0.9,2-3.2,3.6-5.4c0.9-0.7,1.8-1.4,2.9-2.1c-0.6,0-1.1,0-1.5,0.1c0,0,0,0,0,0c5.7-1.7,6.5-1.7,3.6-2.3c4.4-0.4,6.9-3.4,4.6-1  c-3.4,3.4,1.9-0.7,3.8-2.2c1-0.4,2.2-0.9,2.6-1.3c0.2-0.2,0.4-0.3,0.5-0.5c1.4,0.6,2.2-1.4,2.3-3.2c2.2-4.6-0.1-5.5-3.3-5  c0,0,0,0,0,0c0,0,0,0,0,0C33.2,3.4,32,3.7,30.9,4c-0.9,0.3-1.8,0.5-2.5,1c-3,1.9-14.9,10.8-11.4,10.1c-1.1,1-2.3,2.1-2.6,2.5  c0.1-0.1,0.2-0.2,0.3-0.2C14,18.2,13,19.2,12.5,20c-5.8,9.3-0.3,4.4,2.7,0.3c0.2-0.1,0.6-0.1,1-0.3c0.1,0,0.1,0,0.2-0.1  c-0.1,0.1-0.2,0.1-0.3,0.2c-3.3,3.7-7.6,11.4-10,17c0.5-2.4,1-4.7,1.4-7.3C1.7,40.1,3.9,51.1,6.7,62.1C4.8,54,4.4,51.7,5.2,43.4  c0.1-1.4,0.3-2.8,0.5-4c5.6-5.1,2.7-9.8,11.6-17.4C11.3,31,9,39.9,9.7,49.6c-0.3-6.7,1-13.6,4.1-20.5c-4,11.8-4.6,24.5-0.9,35.6  c-0.5-1.2-0.9-2.3-1.3-3.5c0.5,1.9,1.1,3.8,1.8,5.8c-0.3-0.5-0.5-0.9-0.8-1.4l2.3,4.9c1,2.1,2.1,4.1,3.4,5.9  c-0.7-0.9-1.4-1.8-2.2-2.7c2.4,3.4,4.2,5.6,6.2,7.6c1.4,1.5,2.8,2.8,4.3,4c0.7,0.6,1.4,1.1,2.2,1.8c8.6,5.3,17.1,8.4,25.8,8.3  c-6.8,0.4-13.5-0.9-20.4-4.5C11.5,78.9,4.9,53.9,11.8,30.2c-3,10.1-3.9,14.1-2.5,24.7c1.8,14.2-1-3-1.4-6.8c0.6,9.8,2.9,18,6.4,24.6  c-0.6-0.9-1.2-1.8-1.7-2.6C9.4,63.5,7.7,56,7.7,47.8c0.1-7.7,4.3-17.9-0.1-7.8l0,0c0,0,0,0,0,0c0,0,0,0,0,0h0c0,0,0,0,0,0  c-2.4,2.8-2.2,9.5-1.7,12.9c1.6,12.3,7,20.8,11.1,25.7c3.2,4.3,7,7.8,11.2,10.5c-3.5-2.1-6.6-4.5-9.8-8c-1.9-2-8.1-11.4-7.7-10.4  c4.3,12.4,17.1,21.7,29.6,24.7c20.2,4.9,39.4-2.1,49.7-18.2C90.4,76.5,90.8,75.8,91.2,75.1z M26.9,13.7c-0.2,0.2-0.5,0.4-0.8,0.5  C26.4,14,26.6,13.9,26.9,13.7z M28.8,12.1C28.8,12,28.8,12,28.8,12.1C28.8,12,28.8,12.1,28.8,12.1C28.8,12.1,28.8,12.1,28.8,12.1z   M24,11.3C22.3,9.9,28,8.8,24,11.3L24,11.3z M35.5,11.2C37,9.9,36.2,11.1,35.5,11.2L35.5,11.2z M14,28.6L14,28.6  C14,28.6,14,28.6,14,28.6C14,28.6,14,28.6,14,28.6z M84.2,79.7c0.5-0.6,1-1.1,1.4-1.6c-1.5,2-2.9,3.7-3.9,4.6  c-0.3,0.3-0.6,0.5-0.9,0.8C81.3,82.8,82.4,81.6,84.2,79.7z M49.4,94.1c-4.7-0.3-9-1.4-13.2-3.3c3.8,1.6,7.7,2.6,11.8,3  c-3.7-0.6-7.4-1.8-10.8-3.5c0.9,0.3,1.8,0.6,2.7,0.9c4.9,1.8,10.1,2.8,15.2,2.8c0.4,0,0.8,0,1.1,0c0,0,0,0-0.1,0c0.1,0,0.3,0,0.4,0  c0.3,0,0.6,0,0.8,0c-0.8,0.1-1.7,0.1-2.5,0.1c-0.3,0-0.6,0-0.9,0c1.2,0,2.4-0.1,3.6-0.2c1.1,0,2-0.1,2.8-0.1  c-3.4,0.6-6.8,0.7-10.1,0.3c0,0-0.1,0-0.1,0C46.5,94.2,47.2,94.2,49.4,94.1z M69.3,91.8c0.1,0,0.2-0.1,0.4-0.1  c-0.3,0.1-0.6,0.2-0.9,0.3C69,91.9,69.1,91.9,69.3,91.8z M83,84.6c-1.5,1.5-3.1,2.8-4.7,4c-4.9,3.3-10.8,5.6-17.6,6.5  C55.2,95.8,50,95.7,45,94.8C58.4,97,72.8,93.3,83,84.6z M7.2,49.1c0,1.2,0.1,2.5,0.3,3.9C8,57.7,9,62,10.3,66  C8.1,61.3,7.1,56.5,7.2,49.1z M51,96c9.5,0.4,19-2.1,27-7.2C70.5,94.1,61.4,96.7,51,96z" style="fill: #ff6f00;"/><path xmlns="http://www.w3.org/2000/svg" class="st0" d="M95.2,44.1c0,0.1,0.1,0.3,0.1,0.4C95.3,44.3,95.3,44.2,95.2,44.1z" style="fill: #ff6f00;"/><path xmlns="http://www.w3.org/2000/svg" class="st0" d="M95.3,44.5c0.1,0.6,0.2,1.1,0.3,1.7C95.6,45.6,95.4,45,95.3,44.5z" style="fill: #ff6f00;"/><path xmlns="http://www.w3.org/2000/svg" class="st0" d="M94.6,41.5c0.2,0.9,0.5,1.7,0.7,2.6C95,43.2,94.8,42.3,94.6,41.5z" style="fill: #ff6f00;"/></g><g id="SvgjsG4056" featureKey="text1" fill="#000" transform="matrix(3.2514235973358154,0,0,3.2514235973358154,109.74857476992318,-12.824994169317922)"><path d="M9.92 14.4 c-0.02 2.12 -1.72 3.4 -3.36 3.4 l-2.54 0 l0 6.2 l-3.02 0 l0 -16.78 l4.46 0 c0.38 0 0.76 0.02 1.12 0.02 c1.68 0 3.34 1.46 3.34 3.64 l0 3.52 z M5.92 15.54 c0.48 0 0.88 -0.24 0.96 -1 c0 -1.26 0.02 -2.56 0.02 -3.68 c0 -0.96 -0.52 -1.14 -0.98 -1.2 l-1.9 0 l0 5.9 l1.66 0 c0.02 0 0.24 -0.02 0.24 -0.02 z M11.74 24 l0 -16.78 l3.06 0 l0 16.78 l-3.06 0 z M23.5 16.36 l-3.2 0 l0 5.36 l4.84 0 l0 2.28 l-7.86 0 l0 -16.78 l7.86 0 l0 2.28 l-4.84 0 l0 4.62 l3.2 0 l0 2.24 z M29.92 17.58 l0 6.42 l-3.02 0 l0 -16.78 l4.78 0 c0.26 0 0.52 0 0.8 0.02 c1.92 0 3.38 1.72 3.4 3.6 l0 0.84 c0 0.82 -0.02 1.66 -0.02 2.48 c-0.02 1.32 -0.72 2.46 -1.68 3.06 l2.2 6.78 l-3.08 0 l-2.02 -6.42 l-1.36 0 z M31.6 9.66 l-1.68 0 l0 5.68 l1.88 0 c0.6 0 0.86 -0.48 0.92 -1 c0.04 -0.6 0.08 -1.22 0.08 -1.82 c0 -0.62 -0.04 -1.22 -0.08 -1.82 c-0.08 -0.7 -0.44 -1.04 -1.12 -1.04 z  M46.74 24.2 l-2.22 0 c-1.72 0 -3.4 -1.54 -3.42 -3.7 c0 -1.14 0 -2.28 0.02 -3.42 c0.04 -0.9 0.36 -1.76 0.9 -2.38 c-0.72 -0.78 -0.9 -1.9 -0.9 -3 c0 -2.32 0.62 -4.68 3.42 -4.68 l2.2 0 c2.78 0 3.42 2.38 3.42 4.68 c-0.02 1.1 -0.2 2.22 -0.9 3 c0.52 0.62 0.86 1.48 0.88 2.38 c0.02 0.68 0.02 1.36 0.02 2.06 l0 1.36 c-0.02 2.16 -1.7 3.7 -3.42 3.7 z M44.32 16.7 c-0.02 0.66 -0.06 1.32 -0.06 2 c0 0.66 0.06 1.32 0.08 1.98 c0.04 0.56 0.36 0.86 0.8 0.86 c0.22 0.02 0.42 0.02 0.64 0.02 c0.12 0 0.24 0 0.34 -0.02 c0.44 0 0.76 -0.3 0.8 -0.86 c0.04 -0.66 0.08 -1.32 0.08 -1.98 c0 -0.68 -0.04 -1.34 -0.06 -2 c-0.04 -0.9 -0.7 -1 -1.32 -1 c-0.6 0 -1.26 0.1 -1.3 1 z M45.52 9.64 l-0.46 0 c-0.82 0.02 -0.86 1.16 -0.86 1.96 l0 0.26 c0 1 0.08 1.64 1.2 1.64 l0.7 0 c0.86 0 0.96 -0.8 0.96 -1.64 c0 -0.76 0.06 -2.18 -0.84 -2.2 c-0.22 0 -0.46 -0.02 -0.7 -0.02 z"/></g><g id="SvgjsG4057" featureKey="text3" fill="#000" transform="matrix(0.6353288292884827,0,0,0.6353288292884827,107.55946304927751,77.38291402780796)"><path d="M6.5137 20.19531 c-3.0273 0 -5.3906 -1.4551 -5.8203 -4.1016 l3.0273 -0.69336 c0.19531 1.582 1.3574 2.4023 2.9102 2.4023 c1.1914 0 2.1387 -0.52734 2.1289 -1.7188 c-0.0097656 -1.3281 -1.5723 -1.748 -3.291 -2.2754 c-2.0703 -0.64453 -4.2871 -1.4063 -4.2871 -4.0039 c0 -2.627 2.1484 -4.1113 4.9805 -4.1113 c2.4805 0 4.9805 1.0059 5.5469 3.7109 l-2.832 0.70313 c-0.26367 -1.4063 -1.2109 -2.0215 -2.5391 -2.0215 c-1.1816 0 -2.1875 0.48828 -2.1875 1.6504 c0 1.084 1.3867 1.4453 2.9883 1.9238 c2.1289 0.64453 4.6484 1.4648 4.6484 4.2773 c0 2.998 -2.5098 4.2578 -5.2734 4.2578 z M20.742215625 20.19531 c-4.1504 0 -7.2168 -2.832 -7.2168 -7.2559 c0 -4.4336 3.0664 -7.2461 7.2168 -7.2461 c4.1406 0 7.207 2.8125 7.207 7.2461 c0 4.4238 -3.0664 7.2559 -7.207 7.2559 z M20.742215625 17.5098 c2.4316 0 4.2969 -1.709 4.2969 -4.5703 c0 -2.8516 -1.8652 -4.5508 -4.2969 -4.5508 s-4.2969 1.6992 -4.2969 4.5508 c0 2.8613 1.8652 4.5703 4.2969 4.5703 z M38.964359375 8.467 l-5.3711 0 l0 3.2031 l4.6387 0 l0 2.5488 l-4.6387 0 l0 5.7813 l-2.9492 0 l0 -14.111 l8.3203 0 l0 2.5781 z M49.648671875 5.888999999999999 l0 2.5781 l-3.3496 0 l0 11.533 l-2.9004 0 l0 -11.533 l-3.3691 0 l0 -2.5781 l9.6191 0 z M54.1601625 20 l-3.6914 -14.111 l3.0469 0 l2.7539 10.684 l3.1543 -10.684 l2.4707 0 l3.1348 10.684 l2.7832 -10.684 l3.0371 0 l-3.6914 14.111 l-3.7695 0 l-2.7344 -8.7207 l-2.7246 8.7207 l-3.7695 0 z M82.549296875 20 l-1.0254 -2.9102 l-5.9277 0 l-1.0254 2.9102 l-2.998 0 l5.1953 -14.111 l3.584 0 l5.1953 14.111 l-2.998 0 z M76.455096875 14.6387 l4.209 0 l-2.0996 -5.9863 z M95.11714375 20 l-3.6719 -6.2109 l-0.84961 0 l0 6.2109 l-2.9297 0 l0 -14.111 l5.1172 0 c3.1934 0 4.541 1.8848 4.541 4.2188 c0 1.8945 -1.0742 3.125 -2.9883 3.5352 l4.248 6.3574 l-3.4668 0 z M90.59574375 8.32 l0 3.3691 l1.7285 0 c1.5625 0 2.1973 -0.66406 2.1973 -1.6797 c0 -1.0059 -0.63477 -1.6895 -2.1973 -1.6895 l-1.7285 0 z M108.91625 8.467 l-5.2344 0 l0 3.2031 l4.6387 0 l0 2.5488 l-4.6387 0 l0 3.1934 l5.2344 0 l0 2.5879 l-8.1836 0 l0 -14.111 l8.1836 0 l0 2.5781 z  M123.378934375 20.19531 c-4.1504 0 -7.2168 -2.8223 -7.2168 -7.2559 s3.0664 -7.2461 7.2168 -7.2461 c3.1445 0 5.6641 1.6113 6.6699 4.2871 l-2.7344 0.99609 c-0.625 -1.6406 -2.1191 -2.5879 -3.9355 -2.5879 c-2.4316 0 -4.2969 1.6992 -4.2969 4.5508 s1.8652 4.5605 4.2969 4.5605 c1.8164 0 3.3105 -0.95703 3.9355 -2.5977 l2.7344 0.99609 c-1.0059 2.6758 -3.5254 4.2969 -6.6699 4.2969 z M138.7012 20.19531 c-4.1504 0 -7.2168 -2.832 -7.2168 -7.2559 c0 -4.4336 3.0664 -7.2461 7.2168 -7.2461 c4.1406 0 7.207 2.8125 7.207 7.2461 c0 4.4238 -3.0664 7.2559 -7.207 7.2559 z M138.7012 17.5098 c2.4316 0 4.2969 -1.709 4.2969 -4.5703 c0 -2.8516 -1.8652 -4.5508 -4.2969 -4.5508 s-4.2969 1.6992 -4.2969 4.5508 c0 2.8613 1.8652 4.5703 4.2969 4.5703 z M158.24234375 5.888999999999999 l2.9199 0 l0 14.111 l-3.3887 0 l-6.25 -10.088 l0 10.088 l-2.9199 0 l0 -14.111 l3.3496 0 l6.2891 10.029 l0 -10.029 z M169.50198125 20.19531 c-3.0273 0 -5.3906 -1.4551 -5.8203 -4.1016 l3.0273 -0.69336 c0.19531 1.582 1.3574 2.4023 2.9102 2.4023 c1.1914 0 2.1387 -0.52734 2.1289 -1.7188 c-0.0097656 -1.3281 -1.5723 -1.748 -3.291 -2.2754 c-2.0703 -0.64453 -4.2871 -1.4063 -4.2871 -4.0039 c0 -2.627 2.1484 -4.1113 4.9805 -4.1113 c2.4805 0 4.9805 1.0059 5.5469 3.7109 l-2.832 0.70313 c-0.26367 -1.4063 -1.2109 -2.0215 -2.5391 -2.0215 c-1.1816 0 -2.1875 0.48828 -2.1875 1.6504 c0 1.084 1.3867 1.4453 2.9883 1.9238 c2.1289 0.64453 4.6484 1.4648 4.6484 4.2773 c0 2.998 -2.5098 4.2578 -5.2734 4.2578 z M182.705096875 20.19531 c-3.0957 0 -5.5176 -1.582 -5.5176 -5.1367 l0 -9.1699 l2.9297 0 l0 8.7695 c0 2.1484 1.1426 2.9492 2.5879 2.9492 c1.4551 0 2.6074 -0.81055 2.6074 -2.9492 l0 -8.7695 l2.9297 0 l0 9.1699 c0 3.5547 -2.4316 5.1367 -5.5371 5.1367 z M194.531290625 17.4121 l4.4238 0 l0 2.5879 l-7.3535 0 l0 -14.111 l2.9297 0 l0 11.523 z M209.375234375 5.888999999999999 l0 2.5781 l-3.3496 0 l0 11.533 l-2.9004 0 l0 -11.533 l-3.3691 0 l0 -2.5781 l9.6191 0 z M221.035625 20 l-1.0254 -2.9102 l-5.9277 0 l-1.0254 2.9102 l-2.998 0 l5.1953 -14.111 l3.584 0 l5.1953 14.111 l-2.998 0 z M214.941425 14.6387 l4.209 0 l-2.0996 -5.9863 z M235.791171875 5.888999999999999 l2.9199 0 l0 14.111 l-3.3887 0 l-6.25 -10.088 l0 10.088 l-2.9199 0 l0 -14.111 l3.3496 0 l6.2891 10.029 l0 -10.029 z M248.613309375 20.19531 c-4.1504 0 -7.2168 -2.8223 -7.2168 -7.2559 s3.0664 -7.2461 7.2168 -7.2461 c3.1445 0 5.6641 1.6113 6.6699 4.2871 l-2.7344 0.99609 c-0.625 -1.6406 -2.1191 -2.5879 -3.9355 -2.5879 c-2.4316 0 -4.2969 1.6992 -4.2969 4.5508 s1.8652 4.5605 4.2969 4.5605 c1.8164 0 3.3105 -0.95703 3.9355 -2.5977 l2.7344 0.99609 c-1.0059 2.6758 -3.5254 4.2969 -6.6699 4.2969 z M268.271375 5.888999999999999 l-4.6387 7.3535 l0 6.7578 l-2.9395 0 l0 -6.6895 l-4.668 -7.4219 l3.2422 0 l2.8809 4.8047 l2.8906 -4.8047 l3.2324 0 z"/></g>
			</g>
		</svg>
	